{  "asset": {    "version": "2.0",    "generator": "THREE.GLTFExporter r167"  },  "scenes": [    {      "name": "AuxScene",      "nodes": [        10      ]    }  ],  "scene": 0,  "nodes": [    {      "mesh": 0    },    {      "mesh": 1    },    {      "mesh": 2    },    {      "mesh": 3    },    {      "mesh": 4    },    {      "mesh": 5    },    {      "mesh": 6    },    {      "mesh": 7    },    {      "mesh": 8    },    {      "mesh": 9    },    {      "children": [        0,        1,        2,        3,        4,        5,        6,        7,        8,        9      ]    }  ],  "bufferViews": [    {      "buffer": 0,      "byteOffset": 0,      "byteLength": 130176,      "target": 34962,      "byteStride": 12    },    {      "buffer": 0,      "byteOffset": 130176,      "byteLength": 130176,      "target": 34962,      "byteStride": 12    },    {      "buffer": 0,      "byteOffset": 260352,      "byteLength": 86784,      "target": 34962,      "byteStride": 8    },    {      "buffer": 0,      "byteOffset": 347136,      "byteLength": 17856,      "target": 34963    },    {      "buffer": 0,      "byteOffset": 364992,      "byteLength": 3840,      "target": 34963    },    {      "buffer": 0,      "byteOffset": 368832,      "byteLength": 43776,      "target": 34962,      "byteStride": 12    },    {      "buffer": 0,      "byteOffset": 412608,      "byteLength": 43776,      "target": 34962,      "byteStride": 12    },    {      "buffer": 0,      "byteOffset": 456384,      "byteLength": 29184,      "target": 34962,      "byteStride": 8    },    {      "buffer": 0,      "byteOffset": 485568,      "byteLength": 3840,      "target": 34963    },    {      "buffer": 0,      "byteOffset": 489408,      "byteLength": 3456,      "target": 34963    },    {      "buffer": 0,      "byteOffset": 492864,      "byteLength": 112896,      "target": 34962,      "byteStride": 12    },    {      "buffer": 0,      "byteOffset": 605760,      "byteLength": 112896,      "target": 34962,      "byteStride": 12    },    {      "buffer": 0,      "byteOffset": 718656,      "byteLength": 75264,      "target": 34962,      "byteStride": 8    },    {      "buffer": 0,      "byteOffset": 793920,      "byteLength": 15360,      "target": 34963    },    {      "buffer": 0,      "byteOffset": 809280,      "byteLength": 3456,      "target": 34963    },    {      "buffer": 0,      "byteOffset": 812736,      "byteLength": 112896,      "target": 34962,      "byteStride": 12    },    {      "buffer": 0,      "byteOffset": 925632,      "byteLength": 112896,      "target": 34962,      "byteStride": 12    },    {      "buffer": 0,      "byteOffset": 1038528,      "byteLength": 75264,      "target": 34962,      "byteStride": 8    },    {      "buffer": 0,      "byteOffset": 1113792,      "byteLength": 15360,      "target": 34963    },    {      "buffer": 0,      "byteOffset": 1129152,      "byteLength": 3456,      "target": 34963    },    {      "buffer": 0,      "byteOffset": 1132608,      "byteLength": 43776,      "target": 34962,      "byteStride": 12    },    {      "buffer": 0,      "byteOffset": 1176384,      "byteLength": 43776,      "target": 34962,      "byteStride": 12    },    {      "buffer": 0,      "byteOffset": 1220160,      "byteLength": 29184,      "target": 34962,      "byteStride": 8    },    {      "buffer": 0,      "byteOffset": 1249344,      "byteLength": 3840,      "target": 34963    },    {      "buffer": 0,      "byteOffset": 1253184,      "byteLength": 3456,      "target": 34963    },    {      "buffer": 0,      "byteOffset": 1256640,      "byteLength": 43776,      "target": 34962,      "byteStride": 12    },    {      "buffer": 0,      "byteOffset": 1300416,      "byteLength": 43776,      "target": 34962,      "byteStride": 12    },    {      "buffer": 0,      "byteOffset": 1344192,      "byteLength": 29184,      "target": 34962,      "byteStride": 8    },    {      "buffer": 0,      "byteOffset": 1373376,      "byteLength": 3840,      "target": 34963    },    {      "buffer": 0,      "byteOffset": 1377216,      "byteLength": 3456,      "target": 34963    },    {      "buffer": 0,      "byteOffset": 1380672,      "byteLength": 43776,      "target": 34962,      "byteStride": 12    },    {      "buffer": 0,      "byteOffset": 1424448,      "byteLength": 43776,      "target": 34962,      "byteStride": 12    },    {      "buffer": 0,      "byteOffset": 1468224,      "byteLength": 29184,      "target": 34962,      "byteStride": 8    },    {      "buffer": 0,      "byteOffset": 1497408,      "byteLength": 3840,      "target": 34963    },    {      "buffer": 0,      "byteOffset": 1501248,      "byteLength": 3456,      "target": 34963    },    {      "buffer": 0,      "byteOffset": 1504704,      "byteLength": 43776,      "target": 34962,      "byteStride": 12    },    {      "buffer": 0,      "byteOffset": 1548480,      "byteLength": 43776,      "target": 34962,      "byteStride": 12    },    {      "buffer": 0,      "byteOffset": 1592256,      "byteLength": 29184,      "target": 34962,      "byteStride": 8    },    {      "buffer": 0,      "byteOffset": 1621440,      "byteLength": 3840,      "target": 34963    },    {      "buffer": 0,      "byteOffset": 1625280,      "byteLength": 3456,      "target": 34963    },    {      "buffer": 0,      "byteOffset": 1628736,      "byteLength": 43776,      "target": 34962,      "byteStride": 12    },    {      "buffer": 0,      "byteOffset": 1672512,      "byteLength": 43776,      "target": 34962,      "byteStride": 12    },    {      "buffer": 0,      "byteOffset": 1716288,      "byteLength": 29184,      "target": 34962,      "byteStride": 8    },    {      "buffer": 0,      "byteOffset": 1745472,      "byteLength": 3840,      "target": 34963    },    {      "buffer": 0,      "byteOffset": 1749312,      "byteLength": 3456,      "target": 34963    },    {      "buffer": 0,      "byteOffset": 1752768,      "byteLength": 25344,      "target": 34962,      "byteStride": 12    },    {      "buffer": 0,      "byteOffset": 1778112,      "byteLength": 25344,      "target": 34962,      "byteStride": 12    },    {      "buffer": 0,      "byteOffset": 1803456,      "byteLength": 16896,      "target": 34962,      "byteStride": 8    }  ],  "buffers": [    {      "byteLength": 1820352,      "uri": "data:application/octet-stream;base64,"    }  ],  "accessors": [    {      "bufferView": 0,      "componentType": 5126,      "count": 10848,      "max": [        3.7424962520599365,        2.7846426963806152,        3.309769868850708      ],      "min": [        -3.7424962520599365,        -2.784637689590454,        -3.309767484664917      ],      "type": "VEC3"    },    {      "bufferView": 1,      "componentType": 5126,      "count": 10848,      "max": [        0.9991455078125,        0.99969482421875,        0.9791863560676575      ],      "min": [        -0.9852290153503418,        -0.9812310934066772,        -0.9984130263328552      ],      "type": "VEC3"    },    {      "bufferView": 2,      "componentType": 5126,      "count": 10848,      "max": [        0.9971312880516052,        0.9989318251609802      ],      "min": [        0.00714133121073246,        -0.0014038514345884323      ],      "type": "VEC2"    },    {      "bufferView": 3,      "componentType": 5123,      "count": 8928,      "max": [        8927      ],      "min": [        0      ],      "type": "SCALAR"    },    {      "bufferView": 4,      "componentType": 5123,      "count": 1920,      "max": [        10847      ],      "min": [        8928      ],      "type": "SCALAR"    },    {      "bufferView": 5,      "componentType": 5126,      "count": 3648,      "max": [        3.0984716415405273,        2.29490065574646,        2.4416308403015137      ],      "min": [        -0.8832898736000061,        0.2817719578742981,        -3.1628293991088867      ],      "type": "VEC3"    },    {      "bufferView": 6,      "componentType": 5126,      "count": 3648,      "max": [        0.9885860681533813,        0.9618518352508545,        0.9621570706367493      ],      "min": [        -0.9886776208877563,        -0.9618518352508545,        -0.9620960354804993      ],      "type": "VEC3"    },    {      "bufferView": 7,      "componentType": 5126,      "count": 3648,      "max": [        0.9749748110771179,        0.9675893187522888      ],      "min": [        0.0638447254896164,        0.031373027712106705      ],      "type": "VEC2"    },    {      "bufferView": 8,      "componentType": 5123,      "count": 1920,      "max": [        1919      ],      "min": [        0      ],      "type": "SCALAR"    },    {      "bufferView": 9,      "componentType": 5123,      "count": 1728,      "max": [        3647      ],      "min": [        1920      ],      "type": "SCALAR"    },    {      "bufferView": 10,      "componentType": 5126,      "count": 9408,      "max": [        -0.848386287689209,        2.2785909175872803,        3.2233691215515137      ],      "min": [        -3.5849545001983643,        -2.627525806427002,        -3.1585021018981934      ],      "type": "VEC3"    },    {      "bufferView": 11,      "componentType": 5126,      "count": 9408,      "max": [        0.9455244541168213,        0.8882412314414978,        0.9618518352508545      ],      "min": [        -0.9414349794387817,        -0.9618213176727295,        -0.9618518352508545      ],      "type": "VEC3"    },    {      "bufferView": 12,      "componentType": 5126,      "count": 9408,      "max": [        0.9749748110771179,        0.9675893187522888      ],      "min": [        0.05090487375855446,        0.04220709949731827      ],      "type": "VEC2"    },    {      "bufferView": 13,      "componentType": 5123,      "count": 7680,      "max": [        7679      ],      "min": [        0      ],      "type": "SCALAR"    },    {      "bufferView": 14,      "componentType": 5123,      "count": 1728,      "max": [        9407      ],      "min": [        7680      ],      "type": "SCALAR"    },    {      "bufferView": 15,      "componentType": 5126,      "count": 9408,      "max": [        3.5169644355773926,        2.704625129699707,        2.372927665710449      ],      "min": [        -0.8792399764060974,        0.5234440565109253,        -3.231743097305298      ],      "type": "VEC3"    },    {      "bufferView": 16,      "componentType": 5126,      "count": 9408,      "max": [        0.8709982633590698,        0.9617908000946045,        0.9618518352508545      ],      "min": [        -0.9879451990127563,        -0.9619128704071045,        -0.9618518352508545      ],      "type": "VEC3"    },    {      "bufferView": 17,      "componentType": 5126,      "count": 9408,      "max": [        0.9749748110771179,        0.9675893187522888      ],      "min": [        0.0638447254896164,        0.04220709949731827      ],      "type": "VEC2"    },    {      "bufferView": 18,      "componentType": 5123,      "count": 7680,      "max": [        7679      ],      "min": [        0      ],      "type": "SCALAR"    },    {      "bufferView": 19,      "componentType": 5123,      "count": 1728,      "max": [        9407      ],      "min": [        7680      ],      "type": "SCALAR"    },    {      "bufferView": 20,      "componentType": 5126,      "count": 3648,      "max": [        3.0390872955322266,        2.292203664779663,        2.480894088745117      ],      "min": [        -0.8882778882980347,        0.15068456530570984,        -3.16211199760437      ],      "type": "VEC3"    },    {      "bufferView": 21,      "componentType": 5126,      "count": 3648,      "max": [        0.9783623814582825,        0.9618823528289795,        0.9621265530586243      ],      "min": [        -0.9969176054000854,        -0.9618823528289795,        -0.9620960354804993      ],      "type": "VEC3"    },    {      "bufferView": 22,      "componentType": 5126,      "count": 3648,      "max": [        0.9749748110771179,        0.9675893187522888      ],      "min": [        0.0638447254896164,        0.031373027712106705      ],      "type": "VEC2"    },    {      "bufferView": 23,      "componentType": 5123,      "count": 1920,      "max": [        1919      ],      "min": [        0      ],      "type": "SCALAR"    },    {      "bufferView": 24,      "componentType": 5123,      "count": 1728,      "max": [        3647      ],      "min": [        1920      ],      "type": "SCALAR"    },    {      "bufferView": 25,      "componentType": 5126,      "count": 3648,      "max": [        3.0020697116851807,        2.2895607948303223,        2.501605987548828      ],      "min": [        -0.8931822776794434,        0.08041136711835861,        -3.1614155769348145      ],      "type": "VEC3"    },    {      "bufferView": 26,      "componentType": 5126,      "count": 3648,      "max": [        0.9720755815505981,        0.9618518352508545,        0.9620655179023743      ],      "min": [        -0.9989928603172302,        -0.9618518352508545,        -0.9620960354804993      ],      "type": "VEC3"    },    {      "bufferView": 27,      "componentType": 5126,      "count": 3648,      "max": [        0.9749748110771179,        0.9675893187522888      ],      "min": [        0.0638447254896164,        0.031373027712106705      ],      "type": "VEC2"    },    {      "bufferView": 28,      "componentType": 5123,      "count": 1920,      "max": [        1919      ],      "min": [        0      ],      "type": "SCALAR"    },    {      "bufferView": 29,      "componentType": 5123,      "count": 1728,      "max": [        3647      ],      "min": [        1920      ],      "type": "SCALAR"    },    {      "bufferView": 30,      "componentType": 5126,      "count": 3648,      "max": [        0.6465795040130615,        2.286937713623047,        3.188476085662842      ],      "min": [        -0.8980591297149658,        -2.377561092376709,        -3.160721778869629      ],      "type": "VEC3"    },    {      "bufferView": 31,      "componentType": 5126,      "count": 3648,      "max": [        0.999664306640625,        0.9616382122039795,        0.9620044827461243      ],      "min": [        -0.999755859375,        -0.9592577815055847,        -0.9620350003242493      ],      "type": "VEC3"    },    {      "bufferView": 32,      "componentType": 5126,      "count": 3648,      "max": [        0.9749748110771179,        0.9675893187522888      ],      "min": [        0.0638447254896164,        0.031373027712106705      ],      "type": "VEC2"    },    {      "bufferView": 33,      "componentType": 5123,      "count": 1920,      "max": [        1919      ],      "min": [        0      ],      "type": "SCALAR"    },    {      "bufferView": 34,      "componentType": 5123,      "count": 1728,      "max": [        3647      ],      "min": [        1920      ],      "type": "SCALAR"    },    {      "bufferView": 35,      "componentType": 5126,      "count": 3648,      "max": [        -0.46040844917297363,        2.2835617065429688,        3.2722268104553223      ],      "min": [        -1.7233787775039673,        -2.7353200912475586,        -3.159808874130249      ],      "type": "VEC3"    },    {      "bufferView": 36,      "componentType": 5126,      "count": 3648,      "max": [        0.99993896484375,        0.903714120388031,        0.9620655179023743      ],      "min": [        -0.99993896484375,        -0.9619128704071045,        -0.9620655179023743      ],      "type": "VEC3"    },    {      "bufferView": 37,      "componentType": 5126,      "count": 3648,      "max": [        0.9749748110771179,        0.9675893187522888      ],      "min": [        0.05417035520076752,        0.031373027712106705      ],      "type": "VEC2"    },    {      "bufferView": 38,      "componentType": 5123,      "count": 1920,      "max": [        1919      ],      "min": [        0      ],      "type": "SCALAR"    },    {      "bufferView": 39,      "componentType": 5123,      "count": 1728,      "max": [        3647      ],      "min": [        1920      ],      "type": "SCALAR"    },    {      "bufferView": 40,      "componentType": 5126,      "count": 3648,      "max": [        -0.7746220827102661,        2.2803726196289062,        3.211038589477539      ],      "min": [        -2.6642067432403564,        -2.556342124938965,        -3.158950090408325      ],      "type": "VEC3"    },    {      "bufferView": 41,      "componentType": 5126,      "count": 3648,      "max": [        0.99993896484375,        0.9444563388824463,        0.9620350003242493      ],      "min": [        -0.99993896484375,        -0.9612720012664795,        -0.9620044827461243      ],      "type": "VEC3"    },    {      "bufferView": 42,      "componentType": 5126,      "count": 3648,      "max": [        0.9749748110771179,        0.9675893187522888      ],      "min": [        0.0638447254896164,        0.031373027712106705      ],      "type": "VEC2"    },    {      "bufferView": 43,      "componentType": 5123,      "count": 1920,      "max": [        1919      ],      "min": [        0      ],      "type": "SCALAR"    },    {      "bufferView": 44,      "componentType": 5123,      "count": 1728,      "max": [        3647      ],      "min": [        1920      ],      "type": "SCALAR"    },    {      "bufferView": 45,      "componentType": 5126,      "count": 2112,      "max": [        -0.4428049325942993,        2.544146776199341,        2.3770592212677      ],      "min": [        -1.3184043169021606,        0.5358165502548218,        -3.2554914951324463      ],      "type": "VEC3"    },    {      "bufferView": 46,      "componentType": 5126,      "count": 2112,      "max": [        0.9698782563209534,        0.9837946891784668,        0.9693288803100586      ],      "min": [        -0.8950773477554321,        -0.9783623814582825,        -0.9700003266334534      ],      "type": "VEC3"    },    {      "bufferView": 47,      "componentType": 5126,      "count": 2112,      "max": [        0.9964903593063354,        0.9965819120407104      ],      "min": [        -0.9782403111457825,        -0.9760124683380127      ],      "type": "VEC2"    }  ],  "materials": [    {      "pbrMetallicRoughness": {        "baseColorFactor": [          0.6038273388475408,          0.6038273388475408,          0.6038273388475408,          1        ],        "metallicFactor": 0.5,        "roughnessFactor": 0.5      },      "name": "mat0"    },    {      "pbrMetallicRoughness": {        "baseColorFactor": [          0.6038273388475408,          0.6038273388475408,          0.6038273388475408,          1        ],        "metallicFactor": 0.5,        "roughnessFactor": 0.5      },      "name": "mat1"    },    {      "pbrMetallicRoughness": {        "baseColorFactor": [          0.6038273388475408,          0.6038273388475408,          0.6038273388475408,          1        ],        "metallicFactor": 0.5,        "roughnessFactor": 0.5      },      "name": "mat2"    },    {      "pbrMetallicRoughness": {        "baseColorFactor": [          0.6038273388475408,          0.6038273388475408,          0.6038273388475408,          1        ],        "metallicFactor": 0.5,        "roughnessFactor": 0.5      },      "name": "mat3"    },    {      "pbrMetallicRoughness": {        "baseColorFactor": [          0.6038273388475408,          0.6038273388475408,          0.6038273388475408,          1        ],        "metallicFactor": 0.5,        "roughnessFactor": 0.5      },      "doubleSided": true,      "name": "mat4"    }  ],  "meshes": [    {      "primitives": [        {          "mode": 4,          "attributes": {            "POSITION": 0,            "NORMAL": 1,            "TEXCOORD_0": 2          },          "indices": 3,          "material": 0        },        {          "mode": 4,          "attributes": {            "POSITION": 0,            "NORMAL": 1,            "TEXCOORD_0": 2          },          "indices": 4,          "material": 1        }      ]    },    {      "primitives": [        {          "mode": 4,          "attributes": {            "POSITION": 5,            "NORMAL": 6,            "TEXCOORD_0": 7          },          "indices": 8,          "material": 2        },        {          "mode": 4,          "attributes": {            "POSITION": 5,            "NORMAL": 6,            "TEXCOORD_0": 7          },          "indices": 9,          "material": 3        }      ]    },    {      "primitives": [        {          "mode": 4,          "attributes": {            "POSITION": 10,            "NORMAL": 11,            "TEXCOORD_0": 12          },          "indices": 13,          "material": 2        },        {          "mode": 4,          "attributes": {            "POSITION": 10,            "NORMAL": 11,            "TEXCOORD_0": 12          },          "indices": 14,          "material": 3        }      ]    },    {      "primitives": [        {          "mode": 4,          "attributes": {            "POSITION": 15,            "NORMAL": 16,            "TEXCOORD_0": 17          },          "indices": 18,          "material": 2        },        {          "mode": 4,          "attributes": {            "POSITION": 15,            "NORMAL": 16,            "TEXCOORD_0": 17          },          "indices": 19,          "material": 3        }      ]    },    {      "primitives": [        {          "mode": 4,          "attributes": {            "POSITION": 20,            "NORMAL": 21,            "TEXCOORD_0": 22          },          "indices": 23,          "material": 2        },        {          "mode": 4,          "attributes": {            "POSITION": 20,            "NORMAL": 21,            "TEXCOORD_0": 22          },          "indices": 24,          "material": 3        }      ]    },    {      "primitives": [        {          "mode": 4,          "attributes": {            "POSITION": 25,            "NORMAL": 26,            "TEXCOORD_0": 27          },          "indices": 28,          "material": 2        },        {          "mode": 4,          "attributes": {            "POSITION": 25,            "NORMAL": 26,            "TEXCOORD_0": 27          },          "indices": 29,          "material": 3        }      ]    },    {      "primitives": [        {          "mode": 4,          "attributes": {            "POSITION": 30,            "NORMAL": 31,            "TEXCOORD_0": 32          },          "indices": 33,          "material": 2        },        {          "mode": 4,          "attributes": {            "POSITION": 30,            "NORMAL": 31,            "TEXCOORD_0": 32          },          "indices": 34,          "material": 3        }      ]    },    {      "primitives": [        {          "mode": 4,          "attributes": {            "POSITION": 35,            "NORMAL": 36,            "TEXCOORD_0": 37          },          "indices": 38,          "material": 2        },        {          "mode": 4,          "attributes": {            "POSITION": 35,            "NORMAL": 36,            "TEXCOORD_0": 37          },          "indices": 39,          "material": 3        }      ]    },    {      "primitives": [        {          "mode": 4,          "attributes": {            "POSITION": 40,            "NORMAL": 41,            "TEXCOORD_0": 42          },          "indices": 43,          "material": 2        },        {          "mode": 4,          "attributes": {            "POSITION": 40,            "NORMAL": 41,            "TEXCOORD_0": 42          },          "indices": 44,          "material": 3        }      ]    },    {      "primitives": [        {          "mode": 4,          "attributes": {            "POSITION": 45,            "NORMAL": 46,            "TEXCOORD_0": 47          },          "material": 4        }      ]    }  ]}